<?xml version="1.0" encoding="UTF-8" standalone="no"?>
<!DOCTYPE svg PUBLIC "-//W3C//DTD SVG 1.1//EN"
 "http://www.w3.org/Graphics/SVG/1.1/DTD/svg11.dtd">
<!-- Generated by graphviz version 2.44.0 (0)
 -->
<!-- Pages: 1 -->
<svg width="268pt" height="161pt"
 viewBox="0.00 0.00 268.00 161.00" xmlns="http://www.w3.org/2000/svg" xmlns:xlink="http://www.w3.org/1999/xlink">
<g id="graph0" class="graph" transform="scale(1 1) rotate(0) translate(4 157)">
<polygon fill="white" stroke="transparent" points="-4,4 -4,-157 264,-157 264,4 -4,4"/>
<text text-anchor="middle" x="130" y="-7.8" font-family="Times-Roman" font-size="14.00">buzz&gt;Fizz</text>
<g id="clust1" class="cluster">
<title>cluster 1006d754&#45;1139&#45;4de0&#45;a93c&#45;363bd3c28ade</title>
<polygon fill="none" stroke="black" points="8,-31 8,-145 252,-145 252,-31 8,-31"/>
<text text-anchor="middle" x="130" y="-129.8" font-family="Times-Roman" font-size="14.00">Priority</text>
</g>
<g id="clust2" class="cluster">
<title>cluster f4ed8621&#45;228b&#45;435c&#45;9ab9&#45;f47e01e5e509</title>
<polygon fill="none" stroke="black" points="91,-39 91,-114 244,-114 244,-39 91,-39"/>
<text text-anchor="middle" x="167.5" y="-98.8" font-family="Times-Roman" font-size="14.00">Priority</text>
</g>
<!-- 4180fc53&#45;166e&#45;444c&#45;a163&#45;eac06ff34f4d -->
<g id="node1" class="node">
<title>4180fc53&#45;166e&#45;444c&#45;a163&#45;eac06ff34f4d</title>
<ellipse fill="none" stroke="black" cx="204" cy="-65" rx="32.49" ry="18"/>
<text text-anchor="middle" x="204" y="-61.3" font-family="Times-Roman" font-size="14.00">Buzz</text>
</g>
<!-- d561e41e&#45;7d66&#45;4921&#45;bb0f&#45;b3de6b8ae72e -->
<g id="node2" class="node">
<title>d561e41e&#45;7d66&#45;4921&#45;bb0f&#45;b3de6b8ae72e</title>
<ellipse fill="none" stroke="black" cx="126" cy="-65" rx="27.1" ry="18"/>
<text text-anchor="middle" x="126" y="-61.3" font-family="Times-Roman" font-size="14.00">Fizz</text>
</g>
<!-- 491979ef&#45;940c&#45;49e2&#45;9040&#45;5ac70e6546cc -->
<g id="node3" class="node">
<title>491979ef&#45;940c&#45;49e2&#45;9040&#45;5ac70e6546cc</title>
<ellipse fill="none" stroke="black" cx="48" cy="-65" rx="32.49" ry="18"/>
<text text-anchor="middle" x="48" y="-61.3" font-family="Times-Roman" font-size="14.00">Echo</text>
</g>
</g>
</svg>
