<?xml version="1.0" encoding="UTF-8" standalone="no"?>
<!DOCTYPE svg PUBLIC "-//W3C//DTD SVG 1.1//EN"
 "http://www.w3.org/Graphics/SVG/1.1/DTD/svg11.dtd">
<!-- Generated by graphviz version 2.40.1 (0)
 -->
<!-- Title: G Pages: 1 -->
<svg width="278pt" height="161pt"
 viewBox="0.00 0.00 278.00 161.00" xmlns="http://www.w3.org/2000/svg" xmlns:xlink="http://www.w3.org/1999/xlink">
<g id="graph0" class="graph" transform="scale(1 1) rotate(0) translate(4 157)">
<title>G</title>
<polygon fill="#ffffff" stroke="transparent" points="-4,4 -4,-157 274,-157 274,4 -4,4"/>
<text text-anchor="middle" x="135" y="-7.8" font-family="Times,serif" font-size="14.00" fill="#000000">fizzBuzz</text>
<g id="clust1" class="cluster">
<title>cluster 1</title>
<polygon fill="none" stroke="#000000" points="8,-31 8,-145 262,-145 262,-31 8,-31"/>
<text text-anchor="middle" x="135" y="-129.8" font-family="Times,serif" font-size="14.00" fill="#000000">Priority</text>
</g>
<g id="clust2" class="cluster">
<title>cluster 2</title>
<polygon fill="none" stroke="#000000" points="94,-39 94,-114 254,-114 254,-39 94,-39"/>
<text text-anchor="middle" x="174" y="-98.8" font-family="Times,serif" font-size="14.00" fill="#000000">Concatenation</text>
</g>
<!-- Fizz -->
<g id="node1" class="node">
<title>Fizz</title>
<ellipse fill="none" stroke="#000000" cx="216" cy="-65" rx="29.795" ry="18"/>
<text text-anchor="middle" x="216" y="-61.3" font-family="Times,serif" font-size="14.00" fill="#000000">Fizz</text>
</g>
<!-- Buzz -->
<g id="node2" class="node">
<title>Buzz</title>
<ellipse fill="none" stroke="#000000" cx="135" cy="-65" rx="33.2948" ry="18"/>
<text text-anchor="middle" x="135" y="-61.3" font-family="Times,serif" font-size="14.00" fill="#000000">Buzz</text>
</g>
<!-- Echo -->
<g id="node3" class="node">
<title>Echo</title>
<ellipse fill="none" stroke="#000000" cx="50" cy="-65" rx="33.5952" ry="18"/>
<text text-anchor="middle" x="50" y="-61.3" font-family="Times,serif" font-size="14.00" fill="#000000">Echo</text>
</g>
</g>
</svg>
