<?xml version="1.0" encoding="UTF-8" standalone="no"?>
<!DOCTYPE svg PUBLIC "-//W3C//DTD SVG 1.1//EN"
 "http://www.w3.org/Graphics/SVG/1.1/DTD/svg11.dtd">
<!-- Generated by graphviz version 2.44.0 (0)
 -->
<!-- Pages: 1 -->
<svg width="349pt" height="200pt"
 viewBox="0.00 0.00 349.00 200.00" xmlns="http://www.w3.org/2000/svg" xmlns:xlink="http://www.w3.org/1999/xlink">
<g id="graph0" class="graph" transform="scale(1 1) rotate(0) translate(4 196)">
<polygon fill="white" stroke="transparent" points="-4,4 -4,-196 345,-196 345,4 -4,4"/>
<text text-anchor="middle" x="170.5" y="-7.8" font-family="Times-Roman" font-size="14.00">fizzFizzBuzz</text>
<g id="clust1" class="cluster">
<title>cluster aae89ae4&#45;f0c5&#45;44a8&#45;83cc&#45;ba5e679ab880</title>
<polygon fill="none" stroke="black" points="8,-31 8,-184 333,-184 333,-31 8,-31"/>
<text text-anchor="middle" x="170.5" y="-168.8" font-family="Times-Roman" font-size="14.00">Priority</text>
</g>
<g id="clust2" class="cluster">
<title>cluster 2fc7d0b1&#45;d4d8&#45;40e1&#45;9490&#45;cf62f57d5cdd</title>
<polygon fill="none" stroke="black" points="91,-39 91,-153 325,-153 325,-39 91,-39"/>
<text text-anchor="middle" x="208" y="-137.8" font-family="Times-Roman" font-size="14.00">Concatenation</text>
</g>
<g id="clust3" class="cluster">
<title>cluster 82b38bb5&#45;6133&#45;4212&#45;9a08&#45;c9434581a7bd</title>
<polygon fill="none" stroke="black" points="174,-47 174,-122 317,-122 317,-47 174,-47"/>
<text text-anchor="middle" x="245.5" y="-106.8" font-family="Times-Roman" font-size="14.00">Concatenation</text>
</g>
<!-- b1b1a35c&#45;045d&#45;4419&#45;ba43&#45;c9e469d075d2 -->
<g id="node1" class="node">
<title>b1b1a35c&#45;045d&#45;4419&#45;ba43&#45;c9e469d075d2</title>
<ellipse fill="none" stroke="black" cx="282" cy="-73" rx="27.1" ry="18"/>
<text text-anchor="middle" x="282" y="-69.3" font-family="Times-Roman" font-size="14.00">Fizz</text>
</g>
<!-- 173b0dc0&#45;9db9&#45;44d2&#45;9086&#45;90ebfecfa109 -->
<g id="node2" class="node">
<title>173b0dc0&#45;9db9&#45;44d2&#45;9086&#45;90ebfecfa109</title>
<ellipse fill="none" stroke="black" cx="209" cy="-73" rx="27.1" ry="18"/>
<text text-anchor="middle" x="209" y="-69.3" font-family="Times-Roman" font-size="14.00">Fizz</text>
</g>
<!-- 721049e2&#45;d6a3&#45;4193&#45;b27f&#45;b9ba03230b1f -->
<g id="node3" class="node">
<title>721049e2&#45;d6a3&#45;4193&#45;b27f&#45;b9ba03230b1f</title>
<ellipse fill="none" stroke="black" cx="131" cy="-73" rx="32.49" ry="18"/>
<text text-anchor="middle" x="131" y="-69.3" font-family="Times-Roman" font-size="14.00">Buzz</text>
</g>
<!-- accdde81&#45;4e07&#45;4e15&#45;9633&#45;e9c6378d9c4c -->
<g id="node4" class="node">
<title>accdde81&#45;4e07&#45;4e15&#45;9633&#45;e9c6378d9c4c</title>
<ellipse fill="none" stroke="black" cx="48" cy="-73" rx="32.49" ry="18"/>
<text text-anchor="middle" x="48" y="-69.3" font-family="Times-Roman" font-size="14.00">Echo</text>
</g>
</g>
</svg>
